<svg xmlns="http://www.w3.org/2000/svg" viewBox="0 0 691.72 419.62"><defs><style>.cls-1{font-size:18px;font-family:TitlingGothicFBNormal-Regular, TitlingGothicFB Normal;letter-spacing:0.08em;}.cls-1,.cls-8{fill:#3434f4;}.cls-2{letter-spacing:0.07em;}.cls-3{letter-spacing:0.06em;}.cls-4{letter-spacing:0.07em;}.cls-5{letter-spacing:0.08em;}.cls-6{letter-spacing:0.08em;}.cls-7{letter-spacing:0.01em;}.cls-10,.cls-11,.cls-12,.cls-9{fill:none;stroke:#3434f4;stroke-miterlimit:10;}.cls-9{stroke-dasharray:4;}.cls-11{stroke-dasharray:4.04 4.04;}.cls-12{stroke-dasharray:4.04 4.04;}</style></defs><title>CD_Logo2_1</title><g id="Layer_2" data-name="Layer 2"><g id="Layer_1-2" data-name="Layer 1"><text class="cls-1" transform="translate(133.22 110.5)">RISD ID<tspan class="cls-2" x="79.58" y="0">S</tspan><tspan x="94.23" y="0">A p</tspan><tspan class="cls-3" x="128.63" y="0">r</tspan><tspan class="cls-4" x="138.13" y="0">esen</tspan><tspan class="cls-5" x="188.98" y="0">t</tspan><tspan class="cls-4" x="197.37" y="0">s</tspan><tspan x="0" y="21.6">2020 MAK</tspan><tspan class="cls-6" x="107.26" y="21.6">E</tspan><tspan class="cls-7" x="121.05" y="21.6">A</tspan><tspan x="134.42" y="21.6">THON</tspan></text><path class="cls-8" d="M167.58,187.14l-6.69,6.74h-18l-7.8-7.74V161.75l7.8-7.74h17.59l6.69,6.74-4.69,4.63-5.16-5.16H146.06L142,164.27v19.35l4.05,4h11.67l5.16-5.16Z"/><path class="cls-8" d="M243.44,161.75v24.39l-7.8,7.74H182.29l-7.8-7.74V161.75l7.8-7.74h53.35Zm-6.92,21.87V164.27l-4.05-4.05h-47l-4.05,4.05v19.35l4.05,4h47Z"/><path class="cls-8" d="M283.25,154v39.87h-5.69l-20.7-28.73v28.73h-6.63V154h6.39l20,27.73V154Z"/><path class="cls-8" d="M327.16,154v39.87h-5.69l-20.7-28.73v28.73h-6.63V154h6.39l20,27.73V154Z"/><path class="cls-8" d="M345,160.22v10.5h21.17v6.16H345v10.79h24.1v6.21h-31V154h31v6.21Z"/><path class="cls-8" d="M409.53,187.14l-6.69,6.74h-18l-7.8-7.74V161.75l7.8-7.74h17.59l6.68,6.74-4.69,4.63-5.16-5.16H388l-4,4.05v19.35l4,4h11.67l5.16-5.16Z"/><path class="cls-8" d="M447.46,160.22H434.38v33.66h-6.92V160.22h-13V154h33Z"/><path class="cls-8" d="M467.79,160.22v27.45h7.33v6.21H453.6v-6.21h7.27V160.22H453.6V154h21.52v6.21Z"/><path class="cls-8" d="M517.16,154v39.87h-5.69l-20.7-28.73v28.73h-6.62V154h6.39l20,27.73V154Z"/><path class="cls-8" d="M561.07,170.72v23.16h-5.28l-.46-5.16-5.22,5.16H534.8l-7.8-7.74V161.75l7.8-7.74h18.53l6.51,6.56-4.69,4.64-5-5H538l-4.05,4.05v19.35l4.05,4h10.61l5.57-5.57v-5.16H544v-6.22Z"/><path class="cls-8" d="M166.23,230.57H153.16v33.66h-6.92V230.57h-13v-6.21h33Z"/><path class="cls-8" d="M207.21,224.36v39.87h-6.92V247.11H181.12v17.12H174.2V224.36h6.92v16.53h19.17V224.36Z"/><path class="cls-8" d="M225,230.57v10.5H246.2v6.16H225V258h24.1v6.21h-31V224.36h31v6.21Z"/><path class="cls-8" d="M306.4,232.1v24.39l-7.74,7.74H273.51V224.36h25.15Zm-6.91,2.52-4.05-4.05h-15V258h15l4.05-4Z"/><path class="cls-8" d="M411.13,232.1v24.39l-7.79,7.74H323l-7.8-7.74V232.1l7.8-7.74h80.35ZM404.21,254V234.62l-4-4.05h-74l-4,4.05V254l4,4h74Z"/><path class="cls-8" d="M448.4,230.57H435.32v33.66H428.4V230.57h-13v-6.21h33Z"/><path class="cls-8" d="M487.38,247.58v10l-6.62,6.62H460.29l-6.39-6.39,4.69-4.63,4.93,4.87h14l3-3V250l-2.4-2.34-17.12-1.18-6-6V231l6.63-6.63h19l6.1,6.16-4.63,4.63-4.69-4.63h-12.5l-3,3v4.57l2.41,2.4,17.06,1.12Z"/><polygon class="cls-9" points="471.62 407.73 324.47 407.73 311.68 409.94 311.68 416.91 324.47 419.12 471.62 419.12 484.41 416.91 484.41 409.94 471.62 407.73"/><polygon class="cls-9" points="680.09 364.86 540.88 277.3 527.65 271.47 524.11 277.11 535.09 286.51 674.29 374.07 687.52 379.9 691.06 374.26 680.09 364.86"/><polyline class="cls-10" points="7.75 157.42 6.65 159.09 7.9 160.65"/><polyline class="cls-10" points="10.34 163.69 11.59 165.25 13.45 164.53"/><polyline class="cls-11" points="17.23 163.09 19.24 162.32 201.71 16.05 204.01 12.57"/><polyline class="cls-10" points="205.12 10.89 206.22 9.22 204.97 7.66"/><polyline class="cls-10" points="202.54 4.62 201.29 3.06 199.42 3.77"/><polyline class="cls-12" points="195.65 5.21 193.63 5.98 11.17 152.25 8.87 155.74"/><polygon class="cls-10" points="395.37 29.9 346.72 0.54 341.3 1.85 336.04 3.13 323.44 24.02 326.11 34.67 374.76 64.03 380.06 62.74 385.44 61.44 398.04 40.55 395.37 29.9"/><line class="cls-10" x1="341.3" y1="1.85" x2="380.06" y2="62.74"/><line class="cls-10" x1="324.64" y1="28.82" x2="396.78" y2="35.54"/><polygon class="cls-10" points="195.28 388.05 221.5 337.64 219.84 332.31 218.23 327.15 196.59 315.89 186.12 319.24 159.91 369.65 161.53 374.87 163.18 380.14 184.82 391.4 195.28 388.05"/><line class="cls-10" x1="219.84" y1="332.31" x2="161.53" y2="374.86"/><line class="cls-10" x1="191.87" y1="317.4" x2="189.74" y2="389.83"/><polygon class="cls-10" points="609.74 210.81 663.57 192.61 666.06 187.62 668.48 182.78 660.67 159.67 650.8 154.84 596.97 173.03 594.53 177.92 592.06 182.87 599.87 205.97 609.74 210.81"/><line class="cls-10" x1="666.06" y1="187.62" x2="594.53" y2="177.92"/><line class="cls-10" x1="656.22" y1="157.49" x2="604.51" y2="208.25"/><polygon class="cls-10" points="7.05 245.94 63.21 254.62 67.72 251.34 72.1 248.16 75.82 224.05 69.3 215.21 13.14 206.53 8.73 209.74 4.25 212.99 0.53 237.1 7.05 245.94"/><line class="cls-10" x1="67.72" y1="251.34" x2="8.73" y2="209.74"/><line class="cls-10" x1="72.88" y1="220.07" x2="3.59" y2="241.26"/><circle class="cls-8" cx="157.04" cy="34.94" r="5.31"/><circle class="cls-8" cx="347.11" cy="48.78" r="5.31"/><circle class="cls-8" cx="433.14" cy="131.14" r="5.31"/><circle class="cls-8" cx="111.75" cy="135.32" r="5.31"/><circle class="cls-8" cx="327.16" cy="315.89" r="5.31"/><circle class="cls-8" cx="255.54" cy="386.73" r="5.31"/><circle class="cls-8" cx="72.37" cy="254.62" r="5.31"/><circle class="cls-8" cx="575.08" cy="101.54" r="5.31"/><circle class="cls-8" cx="261.43" cy="64.03" r="5.31"/><circle class="cls-8" cx="526.29" cy="321.2" r="5.31"/><circle class="cls-8" cx="630.06" cy="54.09" r="5.31"/><circle class="cls-8" cx="415.38" cy="367.89" r="5.31"/><circle class="cls-8" cx="544.04" cy="235.85" r="5.31"/><path class="cls-9" d="M445.1,122.06s16.83-22.51,54.16-28.48c44.78-7.17,63,7.81,63,7.81"/><path class="cls-9" d="M325.36,325.37s-1.69,21.46-23.42,40.6c-26.06,22.95-44,20.7-44,20.7"/></g></g></svg>