<svg xmlns="http://www.w3.org/2000/svg" viewBox="0 0 691.72 417.16"><defs><style>.cls-1{fill:#3434f4;}.cls-2,.cls-3,.cls-4,.cls-5{fill:none;stroke:#3434f4;stroke-miterlimit:10;}.cls-2{stroke-dasharray:4;}.cls-4{stroke-dasharray:4.04 4.04;}.cls-5{stroke-dasharray:4.04 4.04;}</style></defs><title>CD_Logo</title><g id="Layer_2" data-name="Layer 2"><g id="Layer_1-2" data-name="Layer 1"><path class="cls-1" d="M167.58,184.68l-6.69,6.74h-18l-7.8-7.74v-24.4l7.8-7.74h17.59l6.69,6.75-4.69,4.63-5.16-5.16H146.06L142,161.81v19.35l4.05,4h11.67l5.16-5.16Z"/><path class="cls-1" d="M243.44,159.28v24.4l-7.8,7.74H182.29l-7.8-7.74v-24.4l7.8-7.74h53.35Zm-6.92,21.88V161.81l-4.05-4.05h-47l-4.05,4.05v19.35l4.05,4h47Z"/><path class="cls-1" d="M283.25,151.54v39.88h-5.69l-20.7-28.73v28.73h-6.63V151.54h6.39l20,27.74V151.54Z"/><path class="cls-1" d="M327.16,151.54v39.88h-5.69l-20.7-28.73v28.73h-6.63V151.54h6.39l20,27.74V151.54Z"/><path class="cls-1" d="M345,157.76v10.5h21.17v6.15H345V185.2h24.1v6.22h-31V151.54h31v6.22Z"/><path class="cls-1" d="M409.53,184.68l-6.69,6.74h-18l-7.8-7.74v-24.4l7.8-7.74h17.59l6.68,6.75-4.69,4.63-5.16-5.16H388l-4,4.05v19.35l4,4h11.67l5.16-5.16Z"/><path class="cls-1" d="M447.46,157.76H434.38v33.66h-6.92V157.76h-13v-6.22h33Z"/><path class="cls-1" d="M467.79,157.76V185.2h7.33v6.22H453.6V185.2h7.27V157.76H453.6v-6.22h21.52v6.22Z"/><path class="cls-1" d="M517.16,151.54v39.88h-5.69l-20.7-28.73v28.73h-6.62V151.54h6.39l20,27.74V151.54Z"/><path class="cls-1" d="M561.07,168.26v23.16h-5.28l-.46-5.16-5.22,5.16H534.8l-7.8-7.74v-24.4l7.8-7.74h18.53l6.51,6.57-4.69,4.63-5-5H538l-4.05,4.05v19.35l4.05,4h10.61l5.57-5.57v-5.16H544v-6.21Z"/><path class="cls-1" d="M166.23,228.11H153.16v33.66h-6.92V228.11h-13V221.9h33Z"/><path class="cls-1" d="M207.21,221.9v39.87h-6.92V244.65H181.12v17.12H174.2V221.9h6.92v16.53h19.17V221.9Z"/><path class="cls-1" d="M225,228.11v10.5H246.2v6.16H225v10.79h24.1v6.21h-31V221.9h31v6.21Z"/><path class="cls-1" d="M306.4,229.64V254l-7.74,7.74H273.51V221.9h25.15Zm-6.91,2.52-4.05-4h-15v27.45h15l4.05-4.05Z"/><path class="cls-1" d="M411.13,229.64V254l-7.79,7.74H323l-7.8-7.74V229.64l7.8-7.74h80.35Zm-6.92,21.87V232.16l-4-4h-74l-4,4v19.35l4,4.05h74Z"/><path class="cls-1" d="M448.4,228.11H435.32v33.66H428.4V228.11h-13V221.9h33Z"/><path class="cls-1" d="M487.38,245.12v10l-6.62,6.63H460.29l-6.39-6.39,4.69-4.63,4.93,4.86h14l3-3v-5l-2.4-2.35-17.12-1.17-6-6v-9.56l6.63-6.62h19l6.1,6.15-4.63,4.64-4.69-4.64h-12.5l-3,3v4.58l2.41,2.4,17.06,1.12Z"/><polygon class="cls-2" points="471.62 405.27 324.47 405.27 311.68 407.48 311.68 414.45 324.47 416.66 471.62 416.66 484.41 414.45 484.41 407.48 471.62 405.27"/><polygon class="cls-2" points="680.09 362.4 540.88 274.83 527.65 269.01 524.11 274.64 535.09 284.04 674.29 371.61 687.52 377.43 691.06 371.8 680.09 362.4"/><polyline class="cls-3" points="39.28 154.96 38.17 156.63 39.43 158.19"/><polyline class="cls-3" points="41.86 161.22 43.11 162.78 44.98 162.07"/><polyline class="cls-4" points="48.75 160.63 50.77 159.86 233.23 13.59 235.53 10.11"/><polyline class="cls-3" points="236.65 8.42 237.75 6.76 236.5 5.2"/><polyline class="cls-3" points="234.06 2.16 232.81 0.6 230.94 1.31"/><polyline class="cls-5" points="227.17 2.75 225.16 3.52 42.69 149.79 40.39 153.27"/><polygon class="cls-3" points="395.37 47.55 346.72 18.19 341.3 19.51 336.04 20.79 323.44 41.67 326.11 52.33 374.76 81.69 380.06 80.4 385.44 79.09 398.04 58.21 395.37 47.55"/><line class="cls-3" x1="341.3" y1="19.51" x2="380.06" y2="80.4"/><line class="cls-3" x1="324.64" y1="46.47" x2="396.78" y2="53.2"/><polygon class="cls-3" points="195.28 385.59 221.5 335.18 219.84 329.85 218.23 324.69 196.59 313.43 186.12 316.78 159.91 367.19 161.53 372.4 163.18 377.68 184.82 388.94 195.28 385.59"/><line class="cls-3" x1="219.84" y1="329.85" x2="161.53" y2="372.4"/><line class="cls-3" x1="191.87" y1="314.94" x2="189.74" y2="387.36"/><polygon class="cls-3" points="609.74 208.35 663.57 190.15 666.06 185.16 668.48 180.32 660.67 157.21 650.8 152.38 596.97 170.57 594.53 175.45 592.06 180.4 599.87 203.51 609.74 208.35"/><line class="cls-3" x1="666.06" y1="185.16" x2="594.53" y2="175.45"/><line class="cls-3" x1="656.22" y1="155.03" x2="604.51" y2="205.79"/><polygon class="cls-3" points="7.05 243.47 63.21 252.16 67.72 248.88 72.1 245.7 75.82 221.59 69.3 212.75 13.14 204.07 8.73 207.28 4.25 210.53 0.53 234.63 7.05 243.47"/><line class="cls-3" x1="67.72" y1="248.88" x2="8.73" y2="207.28"/><line class="cls-3" x1="72.88" y1="217.61" x2="3.59" y2="238.79"/><circle class="cls-1" cx="188.57" cy="32.48" r="5.31"/><circle class="cls-1" cx="347.11" cy="66.43" r="5.31"/><circle class="cls-1" cx="352.42" cy="138.17" r="5.31"/><circle class="cls-1" cx="111.75" cy="132.86" r="5.31"/><circle class="cls-1" cx="327.16" cy="313.43" r="5.31"/><circle class="cls-1" cx="255.54" cy="384.26" r="5.31"/><circle class="cls-1" cx="72.37" cy="252.16" r="5.31"/><circle class="cls-1" cx="494.36" cy="108.57" r="5.31"/><circle class="cls-1" cx="261.43" cy="81.69" r="5.31"/><circle class="cls-1" cx="526.29" cy="318.74" r="5.31"/><circle class="cls-1" cx="549.35" cy="61.12" r="5.31"/><circle class="cls-1" cx="415.38" cy="365.43" r="5.31"/><circle class="cls-1" cx="544.04" cy="233.39" r="5.31"/><path class="cls-2" d="M364.38,129.1s16.84-22.52,54.16-28.49c44.79-7.17,63,7.81,63,7.81"/><path class="cls-2" d="M325.36,322.91s-1.69,21.46-23.42,40.59c-26.06,23-44,20.7-44,20.7"/></g></g></svg>