<svg xmlns="http://www.w3.org/2000/svg" viewBox="0 0 691.72 418.45"><defs><style>.cls-1{fill:#3434f4;}.cls-2,.cls-3,.cls-4,.cls-5{fill:none;stroke:#3434f4;stroke-miterlimit:10;}.cls-2{stroke-dasharray:4;}.cls-4{stroke-dasharray:4.04 4.04;}.cls-5{stroke-dasharray:4.04 4.04;}</style></defs><title>CD_Logo_1</title><g id="Layer_2" data-name="Layer 2"><g id="Layer_1-2" data-name="Layer 1"><path class="cls-1" d="M145.08,102.68a2.48,2.48,0,0,1-1.85,1.34l3.31,6.48h-2.36l-3-6h-4.41v6h-2.06V96.27h6.9A3.46,3.46,0,0,1,145.05,98a5.79,5.79,0,0,1,0,4.73Zm-1.82-3.58c-.29-.61-.93-.95-2-.95h-4.38v4.52h4.76a1.73,1.73,0,0,0,1.64-.78,4.43,4.43,0,0,0,.21-1.37A4.81,4.81,0,0,0,143.26,99.1Z"/><path class="cls-1" d="M149.85,110.5V96.27H152V110.5Z"/><path class="cls-1" d="M161.84,110.68c-3.6,0-5.26-1.12-5.87-3a5.28,5.28,0,0,1-.24-1.44h2.15a3.51,3.51,0,0,0,.21,1c.51,1.14,1.71,1.61,3.73,1.61,2.52,0,3.42-.89,3.42-2.13,0-1.46-.94-2-3.15-2.48-.5-.11-1.35-.27-2.11-.42-2.81-.54-4.12-1.67-4.12-3.94s1.64-3.83,5.53-3.82c3.31,0,4.89,1.12,5.58,2.92a4.17,4.17,0,0,1,.2,1.28H165a2.3,2.3,0,0,0-.13-.81c-.51-1.1-1.37-1.59-3.58-1.59-2.49,0-3.3.8-3.3,1.89,0,1.25.76,1.82,3.21,2.29l2,.4c2.61.46,4.14,1.63,4.14,3.94C167.4,109.06,165.64,110.68,161.84,110.68Z"/><path class="cls-1" d="M177.08,110.5h-5.92V96.27h5.76c2,0,3.69.49,4.52,1.46s1.24,2.54,1.24,5.44c0,3.12-.39,4.61-1.26,5.65A5.27,5.27,0,0,1,177.08,110.5Zm3.48-7.31c0-2-.27-3.49-.88-4.11a4.4,4.4,0,0,0-3.07-.88h-3.38v10.39h3.37a4.18,4.18,0,0,0,3.09-1C180.32,106.93,180.56,105.39,180.56,103.19Z"/><path class="cls-1" d="M192.63,110.5V96.27h2.13V110.5Z"/><path class="cls-1" d="M205.15,110.5h-5.93V96.27H205c2,0,3.69.49,4.52,1.46s1.24,2.54,1.24,5.44c0,3.12-.39,4.61-1.25,5.65A5.3,5.3,0,0,1,205.15,110.5Zm3.47-7.31c0-2-.27-3.49-.88-4.11a4.39,4.39,0,0,0-3.06-.88h-3.39v10.39h3.37a4.22,4.22,0,0,0,3.1-1C208.39,106.93,208.62,105.39,208.62,103.19Z"/><path class="cls-1" d="M219.74,110.68c-3.6,0-5.25-1.12-5.87-3a5.65,5.65,0,0,1-.23-1.44h2.14a3.55,3.55,0,0,0,.22,1c.5,1.14,1.71,1.61,3.73,1.61,2.52,0,3.42-.89,3.42-2.13,0-1.46-.94-2-3.15-2.48l-2.11-.42c-2.81-.54-4.12-1.67-4.12-3.94s1.63-3.83,5.52-3.82c3.32,0,4.9,1.12,5.58,2.92a3.89,3.89,0,0,1,.2,1.28h-2.14a2.3,2.3,0,0,0-.13-.81c-.5-1.1-1.36-1.59-3.58-1.59-2.48,0-3.29.8-3.29,1.89,0,1.25.75,1.82,3.2,2.29l2,.4c2.61.46,4.14,1.63,4.14,3.94C225.31,109.06,223.54,110.68,219.74,110.68Z"/><path class="cls-1" d="M229.61,110.5h-2.15l5.46-14.23h2.59l5.19,14.23h-2.18l-1.3-3.58H231Zm4.95-11-.38-1.22-.4,1.24-2.14,5.58h4.93Z"/><path class="cls-1" d="M258.68,109.18a4.72,4.72,0,0,1-3.6,1.41c-1.43,0-3-.47-3.48-1.32v4.34h-1.94v-13h1.92v1.62c.36-1,1.79-1.84,3.71-1.84a4.44,4.44,0,0,1,3.48,1.37,6.37,6.37,0,0,1-.09,7.43Zm-1.55-6.24a3.54,3.54,0,0,0-4.74,5.18,3.72,3.72,0,0,0,4.87-.16,3.67,3.67,0,0,0,.68-2.41A3.49,3.49,0,0,0,257.13,102.94Z"/><path class="cls-1" d="M270.22,102.58a7,7,0,0,0-2.22-.29,2.85,2.85,0,0,0-3,3v5.2h-2v-9.9H265v1.69c.27-1.12,1.79-1.91,3.37-1.91a7,7,0,0,1,1.86.2Z"/><path class="cls-1" d="M280.76,109.72a5.75,5.75,0,0,1-3.52,1,5.08,5.08,0,0,1-4.27-1.82,5.19,5.19,0,0,1,4.21-8.5,4.91,4.91,0,0,1,4.21,1.82,5.88,5.88,0,0,1,.89,4.07h-8.39a2.77,2.77,0,0,0,.84,1.93,3.62,3.62,0,0,0,2.52.86,4.5,4.5,0,0,0,2.29-.52,1.55,1.55,0,0,0,.79-1.12h1.89A3.37,3.37,0,0,1,280.76,109.72Zm-1.06-6.82a3.38,3.38,0,0,0-2.52-.86,3.47,3.47,0,0,0-2.47.86,2.66,2.66,0,0,0-.81,1.86h6.45A2.5,2.5,0,0,0,279.7,102.9Z"/><path class="cls-1" d="M289.89,110.66c-3,0-4.52-.56-4.88-2.11a5.64,5.64,0,0,1-.09-1h1.93a2.43,2.43,0,0,0,.07.65c.18.66,1.17.88,3,.88s2.62-.43,2.62-1.3-.71-1.11-2.41-1.38l-2-.33c-2.2-.34-3.12-1.13-3.12-2.86s1.39-2.83,4.47-2.83c2.57,0,4,.63,4.46,2a4.68,4.68,0,0,1,.15,1.21h-1.9a2.07,2.07,0,0,0-.09-.7c-.21-.42-.93-.81-2.68-.81-1.91,0-2.5.45-2.5,1.15s.41,1,2.07,1.22l2.11.31c2.39.36,3.36,1.15,3.36,2.88C294.44,109.56,293.15,110.66,289.89,110.66Z"/><path class="cls-1" d="M305.94,109.72a5.75,5.75,0,0,1-3.52,1,5.08,5.08,0,0,1-4.27-1.82,5.19,5.19,0,0,1,4.21-8.5,4.9,4.9,0,0,1,4.21,1.82,5.88,5.88,0,0,1,.89,4.07h-8.39a2.77,2.77,0,0,0,.84,1.93,3.62,3.62,0,0,0,2.52.86,4.5,4.5,0,0,0,2.29-.52,1.52,1.52,0,0,0,.79-1.12h1.89A3.37,3.37,0,0,1,305.94,109.72Zm-1.06-6.82a3.38,3.38,0,0,0-2.52-.86,3.44,3.44,0,0,0-2.46.86,2.63,2.63,0,0,0-.82,1.86h6.45A2.5,2.5,0,0,0,304.88,102.9Z"/><path class="cls-1" d="M319.77,110.5H317.9c-.11,0-.11-.11-.11-6.14,0-1.39-.83-2.18-2.45-2.18-1.46,0-2.85.74-2.85,2.31v6h-1.94v-9.9h1.87v1.54c.54-1.26,2.11-1.74,3.64-1.74,2.76,0,3.67,1.6,3.67,3.53C319.73,110.12,319.73,110.48,319.77,110.5Z"/><path class="cls-1" d="M325.83,102.27v5.2c0,1.14.45,1.43,1.55,1.43a10.71,10.71,0,0,0,1.37-.11v1.64a10.45,10.45,0,0,1-2.09.18c-1.58,0-2.79-.6-2.79-2.54v-5.8H322.2V100.6h1.63a20.17,20.17,0,0,0,.09-2.11l1.88,0v2.13h3.06v1.67Z"/><path class="cls-1" d="M336.33,110.66c-3.05,0-4.52-.56-4.88-2.11a5.64,5.64,0,0,1-.09-1h1.92a2.14,2.14,0,0,0,.08.65c.18.66,1.17.88,3,.88s2.62-.43,2.62-1.3-.72-1.11-2.41-1.38l-2-.33c-2.19-.34-3.11-1.13-3.11-2.86s1.39-2.83,4.47-2.83c2.57,0,4,.63,4.46,2a4.6,4.6,0,0,1,.14,1.21h-1.89a2.07,2.07,0,0,0-.09-.7c-.21-.42-.93-.81-2.68-.81-1.91,0-2.5.45-2.5,1.15s.41,1,2.07,1.22l2.11.31c2.39.36,3.36,1.15,3.36,2.88C340.88,109.56,339.59,110.66,336.33,110.66Z"/><path class="cls-1" d="M344.71,103.33V100.7h2.2v2.63Zm0,7.17v-2.63h2.2v2.63Z"/><path class="cls-1" d="M133.77,132.1v-1.84c4.85-2.72,8.09-4.82,8.14-8v-.38c0-1.31-.88-2.28-2.93-2.28s-2.85.93-3,2.07c0,.18,0,.54,0,.75H133.9c0-.3,0-.79,0-1.11.25-1.88,1.71-3.59,5.22-3.59s4.93,1.79,5,3.78a5.51,5.51,0,0,1,0,.81c-.1,3.21-3.44,5.86-7.16,8h7.6v1.82Z"/><path class="cls-1" d="M157.77,121.31A16.59,16.59,0,0,1,158,125a17,17,0,0,1-.38,3.78c-.64,2.39-2.34,3.49-5.15,3.49s-4.48-1-5.16-3.53a22,22,0,0,1-.09-7.42c.46-2.19,2.25-3.6,5.27-3.6S157.3,119.24,157.77,121.31Zm-2.09.45c-.27-1.35-1.37-2.21-3.17-2.21s-2.95.86-3.2,2.21a24.94,24.94,0,0,0-.18,3.23,18.52,18.52,0,0,0,.27,3.31c.36,1.48,1.4,2.16,3.13,2.16a2.83,2.83,0,0,0,3.1-2.16,19.85,19.85,0,0,0,.25-3.33A20.83,20.83,0,0,0,155.68,121.76Z"/><path class="cls-1" d="M160.61,132.1v-1.84c4.84-2.72,8.09-4.82,8.14-8v-.38c0-1.31-.88-2.28-2.93-2.28s-2.85.93-3,2.07c0,.18,0,.54,0,.75h-2.07c0-.3,0-.79,0-1.11.26-1.88,1.71-3.59,5.23-3.59s4.93,1.79,5,3.78a5.51,5.51,0,0,1,0,.81c-.11,3.21-3.44,5.86-7.17,8h7.6v1.82Z"/><path class="cls-1" d="M184.61,121.31a17.22,17.22,0,0,1,.27,3.68,17,17,0,0,1-.38,3.78c-.65,2.39-2.34,3.49-5.15,3.49s-4.48-1-5.17-3.53a16.22,16.22,0,0,1-.36-3.76,16.83,16.83,0,0,1,.27-3.66c.47-2.19,2.25-3.6,5.28-3.6S184.14,119.24,184.61,121.31Zm-2.09.45c-.27-1.35-1.37-2.21-3.17-2.21s-2.95.86-3.2,2.21A24.94,24.94,0,0,0,176,125a17.63,17.63,0,0,0,.27,3.31c.36,1.48,1.4,2.16,3.13,2.16a2.83,2.83,0,0,0,3.1-2.16,19.85,19.85,0,0,0,.25-3.33A22.17,22.17,0,0,0,182.52,121.76Z"/><path class="cls-1" d="M206.77,132.1V121.15l-4,10.95h-2.16l-3.87-10.95V132.1h-2V117.87h2.9l4.05,11.55,4.16-11.55h2.83V132.1Z"/><path class="cls-1" d="M213.77,132.1h-2.15l5.46-14.23h2.59l5.19,14.23h-2.18l-1.3-3.58h-6.26Zm4.95-11-.38-1.23-.4,1.25-2.14,5.58h4.93Z"/><path class="cls-1" d="M236.48,132.1l-5.25-6.65-1.35,1.41v5.24h-2.09V117.87h2.09v6.52l6.53-6.52h2.52l-6.15,6.22,6.28,8Z"/><path class="cls-1" d="M242,132.1V117.87h9.85v1.91h-7.79V124h7.49v1.93h-7.49v4.28h7.86v1.91Z"/><path class="cls-1" d="M256.42,132.1h-2.14l5.46-14.23h2.59l5.19,14.23h-2.18l-1.3-3.58h-6.26Zm5-11-.38-1.23-.4,1.25-2.14,5.58h4.93Z"/><path class="cls-1" d="M274.53,119.77V132.1h-2.12V119.77h-4.7v-1.9h11.54v1.9Z"/><path class="cls-1" d="M291.2,132.1v-6.16h-6.91v6.16H282.2V117.87h2.09V124h6.91v-6.11h2.07V132.1Z"/><path class="cls-1" d="M308.27,119.68c.93,1.08,1.38,2.8,1.38,5.24s-.5,4.26-1.49,5.43-2.58,1.93-4.88,1.93-3.89-.63-4.86-1.93-1.51-2.95-1.51-5.4.43-4.09,1.4-5.2a5.85,5.85,0,0,1,5-2.07C305.67,117.68,307.26,118.36,308.27,119.68Zm-1.95,9.68c.85-.83,1.23-2.43,1.23-4.39s-.38-3.51-1.1-4.25a4,4,0,0,0-3.17-1.17,3.85,3.85,0,0,0-3.13,1.17c-.72.76-1.1,2.36-1.1,4.27s.43,3.56,1.33,4.44a3.83,3.83,0,0,0,2.92,1A4,4,0,0,0,306.32,129.36Z"/><path class="cls-1" d="M321.91,132.1,315.28,121V132.1h-2V117.87h2.5l6.44,10.95V117.87h2V132.1Z"/><path class="cls-1" d="M135.64,289.41v2.8h4.86v1.28h-4.86v4.13h-1.39v-9.48h6.51v1.27Z"/><path class="cls-1" d="M147.88,297.1a3.85,3.85,0,0,1-2.35.64,3.4,3.4,0,0,1-2.85-1.21,4,4,0,0,1,0-4.44,3.45,3.45,0,0,1,2.8-1.22,3.29,3.29,0,0,1,2.81,1.21,3.91,3.91,0,0,1,.58,2.71h-5.59a1.86,1.86,0,0,0,.57,1.28,2.4,2.4,0,0,0,1.68.58,3,3,0,0,0,1.52-.35,1,1,0,0,0,.53-.74h1.26A2.24,2.24,0,0,1,147.88,297.1Zm-.71-4.54a2.67,2.67,0,0,0-3.32,0,1.7,1.7,0,0,0-.54,1.23h4.29A1.66,1.66,0,0,0,147.17,292.56Z"/><path class="cls-1" d="M157,291.78a3.44,3.44,0,0,1,.79,2.43,3.5,3.5,0,0,1-.88,2.57,3.12,3.12,0,0,1-2.33.9,2.73,2.73,0,0,1-2.36-.94l0,.88H151v-9.56h1.28v4a2.5,2.5,0,0,1,2.45-1.16A2.94,2.94,0,0,1,157,291.78Zm-4.66,1.45a3.57,3.57,0,0,0-.16,1.17,2.34,2.34,0,0,0,.2,1.13,2,2,0,0,0,2,1.07,2.2,2.2,0,0,0,1.75-.72,2.31,2.31,0,0,0,.42-1.58,2.37,2.37,0,0,0-.38-1.53,2.15,2.15,0,0,0-1.78-.76A2,2,0,0,0,152.35,293.23Z"/><path class="cls-1" d="M164.74,292.34a4.8,4.8,0,0,0-1.48-.19,1.9,1.9,0,0,0-2,2v3.47H160V291h1.28v1.13a2.24,2.24,0,0,1,2.24-1.27,4.88,4.88,0,0,1,1.24.13Z"/><path class="cls-1" d="M172.58,297.62h-1.24l0-.84a2.63,2.63,0,0,1-2.33,1c-1.52,0-2.53-.81-2.53-2.22,0-4.14,0-4.46,0-4.49h1.31s0,.05,0,4.12c0,1.08.66,1.48,1.76,1.48s1.76-.54,1.76-1.39V291h1.29v5.5A6.18,6.18,0,0,0,172.58,297.62Z"/><path class="cls-1" d="M180,297.62c-.07,0-.16-.4-.15-.84a3,3,0,0,1-2.59.91c-1.58,0-2.53-.63-2.57-1.72,0-.08,0-.23,0-.35,0-1.07.94-2,3.27-2a13.75,13.75,0,0,1,1.87.08,6.45,6.45,0,0,0,0-.73c-.06-.64-.59-1-1.69-1a2.12,2.12,0,0,0-1.5.4,1.09,1.09,0,0,0-.36.87h-1.23a2.24,2.24,0,0,1,.48-1.38,3,3,0,0,1,2.59-1c1.92,0,2.86.73,2.95,1.79,0,.32.05,1.27,0,1.77s0,1.36,0,1.81a5.43,5.43,0,0,0,.13,1.37Zm-1.61-3.1a4.17,4.17,0,0,0-2,.38.84.84,0,0,0-.44.76.8.8,0,0,0,.23.64,2.1,2.1,0,0,0,1.39.38,2.88,2.88,0,0,0,1.56-.36,1.45,1.45,0,0,0,.64-1.05,5,5,0,0,0,0-.66A10.45,10.45,0,0,0,178.42,294.52Z"/><path class="cls-1" d="M188.34,292.34a4.75,4.75,0,0,0-1.48-.19,1.89,1.89,0,0,0-2,2v3.47h-1.31V291h1.28v1.13a2.24,2.24,0,0,1,2.25-1.27,4.78,4.78,0,0,1,1.23.13Z"/><path class="cls-1" d="M193,299.69h-1.37l.93-2.07-3-6.6H191s2.25,5.27,2.25,5.32,2.26-5.32,2.26-5.32h1.34Z"/><path class="cls-1" d="M202.47,297.62v-1.23c3.22-1.81,5.38-3.21,5.42-5.33v-.25c0-.88-.59-1.53-2-1.53s-1.89.63-2,1.38c0,.12,0,.36,0,.51h-1.38c0-.21,0-.53,0-.75.17-1.24,1.14-2.38,3.48-2.38s3.29,1.18,3.35,2.51a4.87,4.87,0,0,1,0,.54c-.07,2.14-2.29,3.9-4.78,5.32h5.06v1.21Z"/><path class="cls-1" d="M214.69,297.73c-1.76,0-2.76-.82-2.95-1.76a4.08,4.08,0,0,1-.06-.74H213a2,2,0,0,0,0,.34c.17.69.79.95,2,.95a1.91,1.91,0,0,0,2.1-1.71c.06-.45.07-.93.09-1.46a3.41,3.41,0,0,1-2.66,1,2.79,2.79,0,0,1-2.92-2,4.59,4.59,0,0,1,0-2.24c.39-1.25,1.46-2,3.34-2a3.08,3.08,0,0,1,3.35,2.25,10.38,10.38,0,0,1,.27,2.6,11.73,11.73,0,0,1-.16,2.32C218,296.79,217,297.73,214.69,297.73Zm2.33-7a1.86,1.86,0,0,0-2.08-1.58,1.89,1.89,0,0,0-2,1.27,2.92,2.92,0,0,0,0,1.38c.16.74.7,1.3,2,1.3a2.53,2.53,0,0,0,2.32-1A6.63,6.63,0,0,0,217,290.76Z"/><path class="cls-1" d="M221.39,298.88l-.86-.13.56-1.16-.13,0h-.34V295.7h1.54v1.95Z"/><path class="cls-1" d="M228.82,297.62v-1.23c3.22-1.81,5.38-3.21,5.42-5.33v-.25c0-.88-.59-1.53-2-1.53s-1.89.63-2,1.38c0,.12,0,.36,0,.51H228.9c0-.21,0-.53,0-.75.16-1.24,1.14-2.38,3.47-2.38s3.29,1.18,3.35,2.51a4.87,4.87,0,0,1,0,.54c-.07,2.14-2.29,3.9-4.78,5.32H236v1.21Z"/><path class="cls-1" d="M244.81,290.43a14.5,14.5,0,0,1-.07,5c-.43,1.59-1.56,2.33-3.43,2.33s-3-.67-3.44-2.35a14.72,14.72,0,0,1-.06-4.95c.31-1.46,1.5-2.39,3.51-2.39S244.5,289.06,244.81,290.43Zm-1.39.3a2.27,2.27,0,0,0-4.25,0,18,18,0,0,0-.12,2.15,13,13,0,0,0,.18,2.21,2.21,2.21,0,0,0,4.15,0,12.86,12.86,0,0,0,.17-2.22A14,14,0,0,0,243.42,290.73Z"/><path class="cls-1" d="M246.71,297.62v-1.23c3.23-1.81,5.38-3.21,5.42-5.33v-.25c0-.88-.59-1.53-1.95-1.53s-1.9.63-2,1.38a4.1,4.1,0,0,0,0,.51h-1.38c0-.21,0-.53,0-.75C247,289.18,248,288,250.3,288s3.28,1.18,3.34,2.51a4.87,4.87,0,0,1,0,.54c-.07,2.14-2.29,3.9-4.77,5.32h5.06v1.21Z"/><path class="cls-1" d="M262.7,290.43a14.5,14.5,0,0,1-.07,5c-.43,1.59-1.56,2.33-3.43,2.33s-3-.67-3.44-2.35a14.72,14.72,0,0,1-.06-4.95c.31-1.46,1.5-2.39,3.51-2.39S262.39,289.06,262.7,290.43Zm-1.39.3a1.9,1.9,0,0,0-2.11-1.47c-1.22,0-2,.57-2.13,1.47a16,16,0,0,0-.13,2.15,13,13,0,0,0,.18,2.21,2.21,2.21,0,0,0,4.15,0,12.86,12.86,0,0,0,.17-2.22A14,14,0,0,0,261.31,290.73Z"/><path class="cls-1" d="M276.8,296.24a1.14,1.14,0,0,1-1.23-1.21,2.58,2.58,0,0,1-2.25,1.19c-1.22,0-2.14-.84-2-2.48a3,3,0,0,1,3-3,1.58,1.58,0,0,1,1.56,1l.21-.74h1c-.17.79-.46,2-.66,2.92s0,1.55.65,1.55c1,0,1.57-.92,1.66-2.45.13-2.34-1.17-4.11-4.12-4.11a4.65,4.65,0,0,0-5,4.69c-.14,3.43,2,4.75,4.31,4.75a5.37,5.37,0,0,0,3.65-1.21l.33.46a5.8,5.8,0,0,1-4,1.29c-2.84,0-5.1-1.71-5-5.26.09-3.16,2.38-5.25,5.75-5.25s4.95,2.14,4.81,4.68C279.39,295,278.32,296.24,276.8,296.24Zm-2.36-4.69a2.15,2.15,0,0,0-2.05,2.11c-.13,1.09.35,1.69,1.24,1.69a1.65,1.65,0,0,0,1.73-1.39c.05-.22.22-.9.28-1.28A1.13,1.13,0,0,0,274.44,291.55Z"/><path class="cls-1" d="M293,292.41a1.65,1.65,0,0,1-1.24.89l2.21,4.32h-1.57l-2-4h-2.94v4h-1.36v-9.48h4.59a2.3,2.3,0,0,1,2.25,1.12,3.15,3.15,0,0,1,.35,1.59A3.25,3.25,0,0,1,293,292.41ZM291.77,290c-.2-.41-.63-.64-1.37-.64h-2.91v3h3.16a1.14,1.14,0,0,0,1.09-.51,2.72,2.72,0,0,0,.15-.92A3.31,3.31,0,0,0,291.77,290Z"/><path class="cls-1" d="M296.16,297.62v-9.48h1.42v9.48Z"/><path class="cls-1" d="M304.15,297.74c-2.4,0-3.5-.75-3.91-2a3.93,3.93,0,0,1-.16-1h1.43a2.08,2.08,0,0,0,.15.67c.33.76,1.14,1.07,2.48,1.07,1.68,0,2.28-.59,2.28-1.41,0-1-.63-1.36-2.1-1.66l-1.4-.28c-1.88-.35-2.75-1.11-2.75-2.62s1.09-2.56,3.68-2.54c2.21,0,3.26.74,3.72,1.94a2.66,2.66,0,0,1,.13.85h-1.43a1.61,1.61,0,0,0-.08-.54c-.34-.73-.91-1.06-2.39-1.06-1.65,0-2.19.53-2.19,1.26s.5,1.22,2.13,1.53l1.36.26c1.74.31,2.76,1.09,2.76,2.63C307.86,296.66,306.68,297.74,304.15,297.74Z"/><path class="cls-1" d="M314.32,297.62h-3.95v-9.48h3.84a4,4,0,0,1,3,1c.6.69.82,1.7.82,3.63s-.26,3.07-.83,3.76A3.53,3.53,0,0,1,314.32,297.62Zm2.31-4.87A4.24,4.24,0,0,0,316,290a3,3,0,0,0-2-.58h-2.25v6.92H314a2.78,2.78,0,0,0,2.06-.64A4.91,4.91,0,0,0,316.63,292.75Z"/><path class="cls-1" d="M328.49,297.74c-2.7,0-4.34-1.2-4.34-4.89,0-3.29,1.3-4.84,4.28-4.84,3.14,0,3.94,1.82,4.06,3.58h-1.42c-.11-1.47-.8-2.27-2.67-2.27s-2.8,1.08-2.8,3.55c0,3,1.33,3.63,2.86,3.63a2.34,2.34,0,0,0,2.63-2.25h1.41C332.36,296.1,331.24,297.74,328.49,297.74Z"/><path class="cls-1" d="M340.78,297.62h-1.3c-.05,0,0-.13,0-4.13,0-.85-.48-1.41-1.65-1.41s-1.87.59-1.87,1.52v4h-1.3v-9.56h1.27V292a2.39,2.39,0,0,1,2.35-1.1,2.2,2.2,0,0,1,2.5,2.36A39.3,39.3,0,0,0,340.78,297.62Z"/><path class="cls-1" d="M348.18,297.62a1.47,1.47,0,0,1-.15-.84,3,3,0,0,1-2.59.91c-1.58,0-2.53-.63-2.56-1.72a2,2,0,0,1,0-.35c0-1.07.93-2,3.26-2a13.63,13.63,0,0,1,1.87.08c0-.17,0-.5,0-.73-.06-.64-.59-1-1.69-1a2.11,2.11,0,0,0-1.5.4,1.06,1.06,0,0,0-.36.87H343.2a2.24,2.24,0,0,1,.48-1.38,3,3,0,0,1,2.59-1c1.92,0,2.87.73,3,1.79,0,.32,0,1.27,0,1.77s0,1.36,0,1.81a5,5,0,0,0,.13,1.37Zm-1.61-3.1a4.12,4.12,0,0,0-1.95.38.85.85,0,0,0-.45.76.8.8,0,0,0,.23.64,2.1,2.1,0,0,0,1.39.38,2.88,2.88,0,0,0,1.56-.36,1.43,1.43,0,0,0,.65-1.05c0-.27.05-.54.05-.66A10.69,10.69,0,0,0,346.57,294.52Z"/><path class="cls-1" d="M356.87,293.49a1.49,1.49,0,0,0-.33-.89,2.25,2.25,0,0,0-1.7-.57,2.23,2.23,0,0,0-1.66.57,2.38,2.38,0,0,0-.53,1.72,2.27,2.27,0,0,0,.56,1.76,2.81,2.81,0,0,0,3.3,0,1.31,1.31,0,0,0,.38-.83h1.25a2.44,2.44,0,0,1-.76,1.68,4.36,4.36,0,0,1-5.06,0,3.3,3.3,0,0,1-1-2.62,3.37,3.37,0,0,1,.89-2.49,3.65,3.65,0,0,1,2.72-.94,3,3,0,0,1,2.86,1.35,2.45,2.45,0,0,1,.33,1.27Z"/><path class="cls-1" d="M365.73,297.1a3.81,3.81,0,0,1-2.35.64,3.38,3.38,0,0,1-2.84-1.21,4,4,0,0,1,0-4.44,3.45,3.45,0,0,1,2.8-1.22,3.28,3.28,0,0,1,2.8,1.21,3.86,3.86,0,0,1,.59,2.71h-5.59a1.86,1.86,0,0,0,.57,1.28,2.4,2.4,0,0,0,1.68.58,3,3,0,0,0,1.52-.35,1.05,1.05,0,0,0,.53-.74h1.26A2.22,2.22,0,0,1,365.73,297.1Zm-.7-4.54a2.26,2.26,0,0,0-1.68-.58,2.29,2.29,0,0,0-1.65.58,1.78,1.78,0,0,0-.54,1.23h4.3A1.66,1.66,0,0,0,365,292.56Z"/><path class="cls-1" d="M377.06,297.74c-2.7,0-4.34-1.2-4.34-4.89,0-3.29,1.31-4.84,4.28-4.84,3.14,0,3.95,1.82,4.07,3.58h-1.43c-.11-1.47-.79-2.27-2.66-2.27-2,0-2.81,1.08-2.81,3.55,0,3,1.33,3.63,2.87,3.63a2.33,2.33,0,0,0,2.62-2.25h1.42C380.94,296.1,379.82,297.74,377.06,297.74Z"/><path class="cls-1" d="M388.65,297.1a3.81,3.81,0,0,1-2.35.64,3.38,3.38,0,0,1-2.84-1.21,4,4,0,0,1,0-4.44,3.45,3.45,0,0,1,2.8-1.22,3.28,3.28,0,0,1,2.8,1.21,3.86,3.86,0,0,1,.59,2.71h-5.59a1.86,1.86,0,0,0,.57,1.28,2.39,2.39,0,0,0,1.67.58,3,3,0,0,0,1.53-.35,1.05,1.05,0,0,0,.53-.74h1.25A2.2,2.2,0,0,1,388.65,297.1Zm-.7-4.54a2.26,2.26,0,0,0-1.68-.58,2.29,2.29,0,0,0-1.65.58,1.78,1.78,0,0,0-.54,1.23h4.3A1.66,1.66,0,0,0,388,292.56Z"/><path class="cls-1" d="M397.87,297.62h-1.25c-.07,0-.07-.07-.07-4.09,0-.93-.55-1.45-1.63-1.45s-1.9.49-1.9,1.53v4h-1.29V291H393v1a2.49,2.49,0,0,1,2.42-1.16,2.15,2.15,0,0,1,2.45,2.35C397.85,297.37,397.85,297.61,397.87,297.62Z"/><path class="cls-1" d="M401.92,292.14v3.46c0,.76.3.95,1,.95a6.13,6.13,0,0,0,.91-.07v1.09a6.78,6.78,0,0,1-1.39.12c-1.06,0-1.86-.4-1.86-1.69v-3.86h-1.12V291h1.09c.05-.09.07-1.4.07-1.4h1.24V291h2v1.12Z"/><path class="cls-1" d="M411.32,297.1a3.85,3.85,0,0,1-2.35.64,3.38,3.38,0,0,1-2.84-1.21,4,4,0,0,1,0-4.44,3.45,3.45,0,0,1,2.8-1.22,3.28,3.28,0,0,1,2.8,1.21,3.91,3.91,0,0,1,.59,2.71h-5.59a1.85,1.85,0,0,0,.56,1.28,2.44,2.44,0,0,0,1.68.58,3,3,0,0,0,1.53-.35,1,1,0,0,0,.52-.74h1.26A2.24,2.24,0,0,1,411.32,297.1Zm-.71-4.54a2.22,2.22,0,0,0-1.67-.58,2.29,2.29,0,0,0-1.65.58,1.78,1.78,0,0,0-.54,1.23h4.3A1.62,1.62,0,0,0,410.61,292.56Z"/><path class="cls-1" d="M419.16,292.34a4.8,4.8,0,0,0-1.48-.19,1.9,1.9,0,0,0-2,2v3.47h-1.3V291h1.28v1.13a2.24,2.24,0,0,1,2.24-1.27,4.88,4.88,0,0,1,1.24.13Z"/><path class="cls-1" d="M167.58,187.14l-6.69,6.74h-18l-7.8-7.74V161.75l7.8-7.74h17.59l6.69,6.74-4.69,4.63-5.16-5.16H146.06L142,164.27v19.35l4.05,4h11.67l5.16-5.16Z"/><path class="cls-1" d="M243.44,161.75v24.39l-7.8,7.74H182.29l-7.8-7.74V161.75l7.8-7.74h53.35Zm-6.92,21.87V164.27l-4.05-4.05h-47l-4.05,4.05v19.35l4.05,4h47Z"/><path class="cls-1" d="M283.25,154v39.87h-5.69l-20.7-28.73v28.73h-6.63V154h6.39l20,27.73V154Z"/><path class="cls-1" d="M327.16,154v39.87h-5.69l-20.7-28.73v28.73h-6.63V154h6.39l20,27.73V154Z"/><path class="cls-1" d="M345,160.22v10.5h21.17v6.16H345v10.79h24.1v6.21h-31V154h31v6.21Z"/><path class="cls-1" d="M409.53,187.14l-6.69,6.74h-18l-7.8-7.74V161.75l7.8-7.74h17.59l6.68,6.74-4.69,4.63-5.16-5.16H388l-4,4.05v19.35l4,4h11.67l5.16-5.16Z"/><path class="cls-1" d="M447.46,160.22H434.38v33.66h-6.92V160.22h-13V154h33Z"/><path class="cls-1" d="M467.79,160.22v27.45h7.33v6.21H453.6v-6.21h7.27V160.22H453.6V154h21.52v6.21Z"/><path class="cls-1" d="M517.16,154v39.87h-5.69l-20.7-28.73v28.73h-6.62V154h6.39l20,27.73V154Z"/><path class="cls-1" d="M561.07,170.72v23.16h-5.28l-.46-5.16-5.22,5.16H534.8l-7.8-7.74V161.75l7.8-7.74h18.53l6.51,6.56-4.69,4.64-5-5H538l-4.05,4.05v19.35l4.05,4h10.61l5.57-5.57v-5.16H544v-6.22Z"/><path class="cls-1" d="M166.23,230.57H153.16v33.66h-6.92V230.57h-13v-6.21h33Z"/><path class="cls-1" d="M207.21,224.36v39.87h-6.92V247.11H181.12v17.12H174.2V224.36h6.92v16.53h19.17V224.36Z"/><path class="cls-1" d="M225,230.57v10.5H246.2v6.16H225V258h24.1v6.21h-31V224.36h31v6.21Z"/><path class="cls-1" d="M306.4,232.1v24.39l-7.74,7.74H273.51V224.36h25.15Zm-6.91,2.52-4.05-4.05h-15V258h15l4.05-4Z"/><path class="cls-1" d="M411.13,232.1v24.39l-7.79,7.74H323l-7.8-7.74V232.1l7.8-7.74h80.35ZM404.21,254V234.62l-4-4.05h-74l-4,4.05V254l4,4h74Z"/><path class="cls-1" d="M448.4,230.57H435.32v33.66H428.4V230.57h-13v-6.21h33Z"/><path class="cls-1" d="M487.38,247.58v10l-6.62,6.62H460.29l-6.39-6.39,4.69-4.63,4.93,4.87h14l3-3V250l-2.4-2.34-17.12-1.18-6-6V231l6.63-6.63h19l6.1,6.16-4.63,4.63-4.69-4.63h-12.5l-3,3v4.57l2.41,2.4,17.06,1.12Z"/><polygon class="cls-2" points="635.83 388.36 488.68 388.36 475.89 390.57 475.89 397.54 488.68 399.75 635.83 399.75 648.62 397.54 648.62 390.57 635.83 388.36"/><polygon class="cls-2" points="680.09 370.69 540.88 283.12 527.65 277.3 524.11 282.93 535.09 292.33 674.29 379.9 687.52 385.72 691.06 380.09 680.09 370.69"/><polyline class="cls-3" points="7.75 157.42 6.65 159.09 7.9 160.65"/><polyline class="cls-3" points="10.34 163.69 11.59 165.25 13.45 164.53"/><polyline class="cls-4" points="17.23 163.09 19.24 162.32 201.71 16.05 204.01 12.57"/><polyline class="cls-3" points="205.12 10.89 206.22 9.22 204.97 7.66"/><polyline class="cls-3" points="202.54 4.62 201.29 3.06 199.42 3.77"/><polyline class="cls-5" points="195.65 5.21 193.63 5.98 11.17 152.25 8.87 155.74"/><polygon class="cls-3" points="395.37 29.9 346.72 0.54 341.3 1.85 336.04 3.13 323.44 24.02 326.11 34.67 374.76 64.03 380.06 62.74 385.44 61.44 398.04 40.55 395.37 29.9"/><line class="cls-3" x1="341.3" y1="1.85" x2="380.06" y2="62.74"/><line class="cls-3" x1="324.64" y1="28.82" x2="396.78" y2="35.54"/><polygon class="cls-3" points="90.38 414.46 116.6 364.05 114.94 358.72 113.33 353.56 91.69 342.3 81.22 345.65 55.01 396.06 56.63 401.27 58.28 406.55 79.92 417.81 90.38 414.46"/><line class="cls-3" x1="114.94" y1="358.72" x2="56.63" y2="401.27"/><line class="cls-3" x1="86.97" y1="343.81" x2="84.84" y2="416.23"/><polygon class="cls-3" points="609.74 210.81 663.57 192.61 666.06 187.62 668.48 182.78 660.67 159.67 650.8 154.84 596.97 173.03 594.53 177.92 592.06 182.87 599.87 205.97 609.74 210.81"/><line class="cls-3" x1="666.06" y1="187.62" x2="594.53" y2="177.92"/><line class="cls-3" x1="656.22" y1="157.49" x2="604.51" y2="208.25"/><polygon class="cls-3" points="7.05 245.94 63.21 254.62 67.72 251.34 72.1 248.16 75.82 224.05 69.3 215.21 13.14 206.53 8.73 209.74 4.25 212.99 0.53 237.1 7.05 245.94"/><line class="cls-3" x1="67.72" y1="251.34" x2="8.73" y2="209.74"/><line class="cls-3" x1="72.88" y1="220.07" x2="3.59" y2="241.26"/><circle class="cls-1" cx="157.04" cy="34.94" r="5.31"/><circle class="cls-1" cx="347.11" cy="48.78" r="5.31"/><circle class="cls-1" cx="433.14" cy="131.14" r="5.31"/><circle class="cls-1" cx="111.75" cy="135.32" r="5.31"/><circle class="cls-1" cx="222.26" cy="342.3" r="5.31"/><circle class="cls-1" cx="150.64" cy="413.13" r="5.31"/><circle class="cls-1" cx="72.37" cy="254.62" r="5.31"/><circle class="cls-1" cx="575.08" cy="101.54" r="5.31"/><circle class="cls-1" cx="261.43" cy="64.03" r="5.31"/><circle class="cls-1" cx="526.29" cy="347.61" r="5.31"/><circle class="cls-1" cx="6.65" cy="297.91" r="5.31"/><circle class="cls-1" cx="111.75" cy="325.89" r="5.31"/><circle class="cls-1" cx="642" cy="315.27" r="5.31"/><circle class="cls-1" cx="630.06" cy="54.09" r="5.31"/><circle class="cls-1" cx="464.36" cy="320.58" r="5.31"/><circle class="cls-1" cx="544.04" cy="235.85" r="5.31"/><path class="cls-2" d="M445.1,122.06s16.83-22.51,54.16-28.48c44.78-7.17,63,7.81,63,7.81"/><path class="cls-2" d="M220.46,351.78s-1.69,21.46-23.42,40.59c-26.06,23-44,20.7-44,20.7"/></g></g></svg>